<?xml version="1.0" standalone="no"?>
<!DOCTYPE svg PUBLIC "-//W3C//DTD SVG 20010904//EN"
 "http://www.w3.org/TR/2001/REC-SVG-20010904/DTD/svg10.dtd">
<svg version="1.0" xmlns="http://www.w3.org/2000/svg"
 width="1280.000000pt" height="867.000000pt" viewBox="0 0 1280.000000 867.000000"
 preserveAspectRatio="xMidYMid meet">
<metadata>
Created by potrace 1.15, written by Peter Selinger 2001-2017
</metadata>
<g transform="translate(0.000000,867.000000) scale(0.100000,-0.100000)"
fill="#000000" stroke="none">
<path d="M5040 7549 c-131 -21 -272 -128 -329 -249 -16 -34 -35 -94 -42 -132
l-13 -70 -44 6 c-117 16 -270 -40 -363 -133 -265 -266 -117 -711 257 -773 63
-11 164 -3 215 17 10 4 83 -69 218 -215 l203 -220 39 60 c21 33 76 99 121 146
176 184 404 291 658 310 84 6 89 8 85 28 -2 12 -21 122 -41 245 l-36 223 40
42 c212 217 86 588 -217 637 -96 15 -204 -10 -276 -66 l-32 -24 -44 45 c-55
56 -164 110 -249 124 -73 11 -74 11 -150 -1z"/>
<path d="M5905 6203 c-382 -61 -678 -326 -771 -690 -30 -117 -34 -295 -10
-409 74 -349 334 -620 682 -710 90 -23 112 -25 249 -21 171 5 248 23 380 87
243 117 441 364 496 620 6 27 12 50 14 50 1 0 20 -7 41 -16 51 -21 135 -15
199 16 62 30 158 125 224 223 28 42 51 79 51 83 0 3 -25 -17 -55 -44 -142
-130 -298 -172 -410 -109 -39 22 -40 24 -46 93 -4 39 -10 85 -14 102 -6 30 -5
32 22 32 35 0 102 31 125 56 25 29 48 88 48 126 0 17 -9 51 -21 75 -50 102
-208 127 -283 45 -18 -21 -18 -20 -75 52 -125 156 -294 265 -491 316 -84 22
-283 35 -355 23z"/>
<path d="M7720 5838 c-57 -39 -75 -72 -75 -137 0 -69 24 -107 104 -166 82 -59
87 -124 17 -209 l-35 -43 39 -38 38 -37 40 51 c56 71 76 128 69 196 -7 71 -32
110 -107 168 -48 38 -60 53 -60 75 0 31 16 52 40 52 16 0 40 56 40 94 0 25
-70 21 -110 -6z"/>
<path d="M7980 5841 c-45 -24 -80 -84 -80 -139 0 -59 10 -76 96 -157 66 -64
74 -75 74 -109 0 -43 -11 -67 -52 -115 l-30 -33 33 -34 c18 -19 38 -34 43 -34
17 1 79 85 98 132 39 99 19 161 -83 259 -43 42 -79 79 -79 82 0 25 23 57 40
57 21 0 36 26 47 83 5 26 4 27 -33 27 -22 0 -55 -8 -74 -19z"/>
<path d="M7470 5136 c0 -18 3 -48 6 -65 l7 -31 467 0 c405 0 469 2 474 15 3 8
8 37 12 65 l7 50 -487 0 -486 0 0 -34z"/>
<path d="M4145 5099 c-22 -6 -76 -13 -120 -18 -86 -8 -114 -19 -157 -59 -66
-61 -14 -103 152 -120 165 -18 275 -74 509 -258 58 -46 115 -85 128 -89 56
-14 173 49 194 103 32 85 78 162 121 205 51 51 55 69 22 102 -23 23 -68 18
-146 -15 -111 -47 -139 -43 -314 43 -208 103 -296 127 -389 106z"/>
<path d="M7510 4992 c0 -32 142 -192 171 -192 5 0 9 -4 9 -10 0 -6 -39 -10
-97 -10 -280 0 -653 -46 -653 -81 0 -71 987 -120 1510 -75 328 29 510 55 510
75 0 35 -369 81 -647 81 -95 0 -130 10 -84 25 25 8 134 122 155 163 l17 32
-446 0 c-245 0 -445 -4 -445 -8z"/>
<path d="M7447 4594 c-4 -4 -7 -18 -7 -30 0 -17 14 -32 53 -57 62 -40 164
-148 191 -203 42 -84 112 -134 189 -134 41 0 54 7 161 93 179 144 201 154 339
172 65 8 122 17 127 20 14 9 12 42 -4 74 -26 50 -52 55 -287 59 l-217 3 -62
-31 c-83 -42 -130 -43 -196 -3 -45 27 -62 31 -165 38 -63 3 -117 3 -122 -1z"/>
<path d="M4530 4554 c0 -3 -29 -102 -65 -219 -75 -249 -143 -498 -147 -538
l-3 -29 360 -117 360 -117 -3 -617 -3 -617 259 0 260 0 53 -82 c75 -115 196
-358 258 -516 29 -74 51 -136 48 -138 -2 -3 -30 2 -61 10 -282 74 -516 -34
-646 -297 -28 -56 -53 -117 -56 -134 l-6 -33 1196 0 1196 0 0 25 c0 49 -23
132 -53 188 -78 148 -258 233 -519 246 l-127 6 190 362 191 363 198 0 198 0
-5 133 c-10 311 -40 589 -87 799 l-23 100 91 -6 c50 -3 139 -8 197 -12 l106
-6 12 78 c10 74 41 429 56 645 l7 96 -50 -10 c-61 -13 -125 3 -184 45 -22 17
-44 26 -48 21 -4 -4 -31 -75 -60 -158 -29 -82 -55 -152 -56 -153 -1 -2 -78 11
-171 28 l-168 33 -73 78 c-112 120 -248 202 -377 229 -22 4 -94 20 -160 35
-435 96 -859 107 -1135 28 -84 -24 -186 -81 -247 -138 l-54 -52 -182 31 -182
32 4 173 4 174 -24 -7 c-90 -25 -167 -19 -223 19 -38 26 -46 29 -46 19z"/>
</g>
</svg>
